<svg width="1728" height="1055" viewBox="0 0 1728 1055" fill="none" xmlns="http://www.w3.org/2000/svg">
<path d="M-119.731 1.60547C536.086 1.60547 1191.9 1.60547 1847.72 1.60547C2326.3 352.387 2805.12 703.058 3284.18 1053.62C1670.72 1054.36 57.2646 1054.36 -1556.2 1053.62C-1076.95 703.169 -598.128 352.498 -119.731 1.60547Z" stroke="white" stroke-opacity="0.07" stroke-width="1.33471" stroke-miterlimit="10"/>
<path d="M-1485.13 1001.63C-702.665 1009.75 81.167 996.605 863.998 996.605C1646.83 996.605 2430.39 1009.75 3213.13 1001.63" stroke="white" stroke-opacity="0.07" stroke-width="1.33471" stroke-miterlimit="10"/>
<path d="M-1417.99 952.589C-657.543 963.637 103.27 929.001 863.992 930.051C1624.71 931.1 2385.89 963.858 3145.98 952.589" stroke="white" stroke-opacity="0.07" stroke-width="1.33471" stroke-miterlimit="10"/>
<path d="M-1354.66 906.344C-613.959 917.006 123.108 853.865 863.995 854.859C1604.88 855.854 2342.49 916.785 3082.65 906.344" stroke="white" stroke-opacity="0.07" stroke-width="1.33471" stroke-miterlimit="10"/>
<path d="M-1294.7 862.155C-571.376 869.447 140.397 772.664 863.997 772.664C1587.6 772.664 2299.28 869.557 3022.7 862.155" stroke="white" stroke-opacity="0.07" stroke-width="1.33471" stroke-miterlimit="10"/>
<path d="M-1238.02 820.73C-529.436 822.663 155.132 689.09 863.72 689.09C1572.31 689.09 2257.06 822.663 2965.46 820.73" stroke="white" stroke-opacity="0.07" stroke-width="1.33471" stroke-miterlimit="10"/>
<path d="M-1184.34 781.393C-488.395 776.642 167.604 603.461 864 603.461C1560.4 603.461 2216.3 776.642 2912.34 781.393" stroke="white" stroke-opacity="0.07" stroke-width="1.33471" stroke-miterlimit="10"/>
<path d="M-1133.12 744.054C-448.367 732.343 178.062 519.664 863.994 519.664C1549.93 519.664 2176.36 732.343 2861.11 744.054" stroke="white" stroke-opacity="0.07" stroke-width="1.33471" stroke-miterlimit="10"/>
<path d="M-1084.99 708.591C-409.341 690.251 186.973 439.953 863.989 439.953C1541.01 439.953 2137.77 690.251 2812.97 708.591" stroke="white" stroke-opacity="0.07" stroke-width="1.33471" stroke-miterlimit="10"/>
<path d="M-1038.86 674.777C-371.578 651.133 194.71 365.426 863.992 365.426C1533.27 365.426 2099.65 651.133 2766.84 674.777" stroke="white" stroke-opacity="0.07" stroke-width="1.33471" stroke-miterlimit="10"/>
<path d="M-988.539 637.932C-329.72 612.798 203.359 300.961 863.998 300.961C1524.64 300.961 2058.26 612.908 2716.53 637.932" stroke="white" stroke-opacity="0.07" stroke-width="1.33471" stroke-miterlimit="10"/>
<path d="M-928.859 594.234C-281.868 563.189 213.452 215.832 863.992 215.832C1514.53 215.832 2009.49 563.023 2656.39 594.124" stroke="white" stroke-opacity="0.07" stroke-width="1.33471" stroke-miterlimit="10"/>
<path d="M-873 553.247C-234.47 517.175 221.363 139.656 863.987 139.656C1506.61 139.656 1962.44 517.175 2600.97 553.247" stroke="white" stroke-opacity="0.07" stroke-width="1.33471" stroke-miterlimit="10"/>
<path d="M-820.398 514.851C-188.874 480.381 228.29 82.3125 863.999 82.3125C1499.71 82.3125 1916.87 480.381 2548.4 514.851" stroke="white" stroke-opacity="0.07" stroke-width="1.33471" stroke-miterlimit="10"/>
<path d="M-762.992 472.761C-158.4 437.848 255.307 67.9531 863.994 67.9531C1472.68 67.9531 1886.39 438.069 2490.98 472.761" stroke="white" stroke-opacity="0.07" stroke-width="1.33471" stroke-miterlimit="10"/>
<path d="M-709.406 433.486C-131.654 399.126 281.416 56.1328 863.99 56.1328C1446.56 56.1328 1859.18 399.07 2437.39 433.486" stroke="white" stroke-opacity="0.07" stroke-width="1.33471" stroke-miterlimit="10"/>
<path d="M-658.09 395.924C-105.268 362.779 307.439 50.832 863.991 50.832C1420.54 50.832 1832.98 362.945 2386.07 395.924" stroke="white" stroke-opacity="0.07" stroke-width="1.33471" stroke-miterlimit="10"/>
<path d="M-597.129 351.278C-71.238 323.325 334.917 45.7383 863.992 45.7383C1393.07 45.7383 1799.77 323.381 2325.11 351.278" stroke="white" stroke-opacity="0.07" stroke-width="1.33471" stroke-miterlimit="10"/>
<path d="M-540.895 310.076C-39.9334 286.709 360.763 44.918 863.999 44.918C1367.23 44.918 1767.66 286.654 2268.89 310.076" stroke="white" stroke-opacity="0.07" stroke-width="1.33471" stroke-miterlimit="10"/>
<path d="M-488.859 271.961C-12.6461 252.627 386.139 42.1023 863.99 43.5386C1341.84 44.9748 1739.9 252.571 2216.84 271.961" stroke="white" stroke-opacity="0.07" stroke-width="1.33471" stroke-miterlimit="10"/>
<path d="M-440.539 236.602C14.3839 220.03 407.983 43.2578 863.998 43.2578C1320.01 43.2578 1713.79 220.03 2168.54 236.602" stroke="white" stroke-opacity="0.07" stroke-width="1.33471" stroke-miterlimit="10"/>
<path d="M-385.133 196.004C45.6792 182.581 432.273 36.9649 863.994 36.1363C1295.72 35.3077 1682.86 182.581 2113.12 196.004" stroke="white" stroke-opacity="0.07" stroke-width="1.33471" stroke-miterlimit="10"/>
<path d="M-329.176 155.073C77.8893 145.406 456.203 31.6641 863.996 31.6641C1271.79 31.6641 1650.01 145.406 2057.17 155.073" stroke="white" stroke-opacity="0.07" stroke-width="1.33471" stroke-miterlimit="10"/>
<path d="M-277.863 117.617C108.275 111.596 477.309 29.5629 864.175 29.2315C1251.04 28.9 1620.08 111.596 2006.21 117.617" stroke="white" stroke-opacity="0.07" stroke-width="1.33471" stroke-miterlimit="10"/>
<path d="M-225.184 78.9478C140.301 76.2962 498.417 24.5352 863.993 24.5352C1229.57 24.5352 1587.68 76.2962 1953.17 78.9478" stroke="white" stroke-opacity="0.07" stroke-width="1.33471" stroke-miterlimit="10"/>
<path d="M-169.773 38.2879C175.331 38.5641 518.798 16.1914 863.993 16.1914C1209.19 16.1914 1552.66 38.7851 1897.76 38.2879" stroke="white" stroke-opacity="0.07" stroke-width="1.33471" stroke-miterlimit="10"/>
<path d="M1696.5 1.66016C1888.3 165.506 2095.11 322.722 2285.45 487.231C2500.99 673.449 2690.6 869.831 2911.88 1053.73" stroke="white" stroke-opacity="0.07" stroke-width="1.33471" stroke-miterlimit="10"/>
<path d="M1620.71 1.60547C1792.22 155.728 1989.2 299.908 2154.7 456.296C2359.87 650.193 2516.37 861.048 2725.63 1053.73" stroke="white" stroke-opacity="0.07" stroke-width="1.33471" stroke-miterlimit="10"/>
<path d="M1545.02 1.55078C1696.6 142.747 1881.66 271.901 2022.68 417.186C2220.39 621.081 2343.41 848.62 2539.48 1053.73" stroke="white" stroke-opacity="0.07" stroke-width="1.33471" stroke-miterlimit="10"/>
<path d="M1469.04 1.44141C1593.51 131.203 1773.66 239.642 1890.76 371.889C2081.82 587.606 2171.53 834.092 2353.05 1053.73" stroke="white" stroke-opacity="0.07" stroke-width="1.33471" stroke-miterlimit="10"/>
<path d="M1393.71 1.38281C1498.34 115.069 1671.39 204.339 1766.74 321.119C1951.9 548.382 2005.31 819.063 2167.08 1053.67" stroke="white" stroke-opacity="0.07" stroke-width="1.33471" stroke-miterlimit="10"/>
<path d="M1318 1.27734C1403.89 99.7172 1567.94 170.592 1643.18 272.291C1719.7 375.647 1746.27 509.11 1787.48 619.813C1842.08 766.534 1900.67 911.321 1981.01 1053.68" stroke="white" stroke-opacity="0.07" stroke-width="1.33471" stroke-miterlimit="10"/>
<path d="M1242.39 1.22266C1314.09 83.5873 1460.76 138.773 1520.26 224.839C1594.78 332.007 1604.97 479.998 1637.36 594.955C1680.76 749.299 1727.25 902.318 1794.85 1053.46" stroke="white" stroke-opacity="0.07" stroke-width="1.33471" stroke-miterlimit="10"/>
<path d="M1166.7 1.10938C1224.57 74.8012 1347.03 114.188 1395.8 191.029C1470.86 309.19 1466.68 471.599 1492.16 597.77C1523.09 750.733 1558.03 902.591 1608.71 1053.62" stroke="white" stroke-opacity="0.07" stroke-width="1.33471" stroke-miterlimit="10"/>
<path d="M1091.09 1.05469C1134.95 63.0906 1234.21 89.4407 1272.06 154.349C1343.03 275.88 1322.74 450.221 1340.12 579.707C1361.32 738.304 1385.61 896.294 1422.55 1053.84" stroke="white" stroke-opacity="0.07" stroke-width="1.33471" stroke-miterlimit="10"/>
<path d="M1015.39 1.05469C1045.15 51.4347 1113.84 71.4872 1141.04 123.911C1206.46 249.806 1173.43 431.605 1184.08 564.515C1197.27 727.808 1212.19 890.825 1236.4 1053.62" stroke="white" stroke-opacity="0.07" stroke-width="1.33471" stroke-miterlimit="10"/>
<path d="M939.695 1C951.068 37.4592 987.189 66.019 1002.84 102.754C1059.25 235.333 1018.94 416.801 1024.22 554.573C1030.68 721.014 1037.87 887.346 1050.15 1053.68" stroke="white" stroke-opacity="0.07" stroke-width="1.33471" stroke-miterlimit="10"/>
<path d="M863.996 1.05469V1053.73" stroke="white" stroke-opacity="0.07" stroke-width="1.33471" stroke-miterlimit="10"/>
<path d="M788.295 1C776.922 37.4592 740.801 66.019 725.152 102.754C668.741 235.333 709.048 416.801 703.771 554.573C697.311 721.014 690.123 887.346 677.84 1053.68" stroke="white" stroke-opacity="0.07" stroke-width="1.33471" stroke-miterlimit="10"/>
<path d="M712.595 1.05469C682.843 51.4347 614.15 71.4872 586.945 123.911C521.528 249.806 554.555 431.605 543.91 564.515C530.717 727.808 515.796 890.825 491.594 1053.62" stroke="white" stroke-opacity="0.07" stroke-width="1.33471" stroke-miterlimit="10"/>
<path d="M636.898 1.05469C593.044 63.0906 493.78 89.4407 455.93 154.349C384.962 275.88 405.252 450.221 387.874 579.707C366.674 738.304 342.381 896.294 305.441 1053.84" stroke="white" stroke-opacity="0.07" stroke-width="1.33471" stroke-miterlimit="10"/>
<path d="M561.288 1.10938C503.422 74.8012 380.957 114.188 332.189 191.029C257.127 309.19 261.312 471.599 235.836 597.77C204.902 750.733 169.964 902.591 119.285 1053.62" stroke="white" stroke-opacity="0.07" stroke-width="1.33471" stroke-miterlimit="10"/>
<path d="M485.591 1.22266C413.895 83.5873 267.228 138.773 207.724 224.839C133.208 332.007 123.018 479.998 90.6271 594.955C47.2275 749.299 0.734363 902.318 -66.8672 1053.46" stroke="white" stroke-opacity="0.07" stroke-width="1.33471" stroke-miterlimit="10"/>
<path d="M409.985 1.27734C324.096 99.7172 160.05 170.592 84.8061 272.291C8.28801 375.647 -18.2794 509.11 -59.4954 619.813C-114.086 766.534 -172.68 911.321 -253.02 1053.68" stroke="white" stroke-opacity="0.07" stroke-width="1.33471" stroke-miterlimit="10"/>
<path d="M334.283 1.38281C229.651 115.069 56.5982 204.339 -38.7537 321.119C-223.907 548.382 -277.315 819.063 -439.086 1053.67" stroke="white" stroke-opacity="0.07" stroke-width="1.33471" stroke-miterlimit="10"/>
<path d="M258.948 1.44141C134.481 131.203 -45.6687 239.642 -162.766 371.889C-353.834 587.606 -443.544 834.092 -625.059 1053.73" stroke="white" stroke-opacity="0.07" stroke-width="1.33471" stroke-miterlimit="10"/>
<path d="M182.977 1.55078C31.3969 142.747 -153.666 271.901 -294.692 417.186C-492.401 621.081 -615.413 848.62 -811.484 1053.73" stroke="white" stroke-opacity="0.07" stroke-width="1.33471" stroke-miterlimit="10"/>
<path d="M107.276 1.60547C-64.2298 155.728 -261.211 299.908 -426.712 456.296C-631.883 650.193 -788.376 861.048 -997.641 1053.73" stroke="white" stroke-opacity="0.07" stroke-width="1.33471" stroke-miterlimit="10"/>
<path d="M31.4816 1.66016C-160.314 165.506 -367.122 322.722 -557.462 487.231C-773.004 673.449 -962.616 869.831 -1183.89 1053.73" stroke="white" stroke-opacity="0.07" stroke-width="1.33471" stroke-miterlimit="10"/>
</svg>
